<?xml version="1.0" encoding="utf-8"?>
<!-- Generator: Adobe Illustrator 16.0.0, SVG Export Plug-In . SVG Version: 6.00 Build 0)  -->
<!DOCTYPE svg PUBLIC "-//W3C//DTD SVG 1.1//EN" "http://www.w3.org/Graphics/SVG/1.1/DTD/svg11.dtd">
<svg version="1.1" id="图层_1" xmlns="http://www.w3.org/2000/svg" xmlns:xlink="http://www.w3.org/1999/xlink" x="0px" y="0px"
	 width="255.118px" height="255.118px" viewBox="0 0 255.118 255.118" enable-background="new 0 0 255.118 255.118"
	 xml:space="preserve">
<polygon fill="#C92A1D" points="13.985,143.531 13.985,163.479 127.623,89.739 127.623,69.791 "/>
<polygon fill="#C92A1D" points="13.985,203.376 127.623,129.636 127.623,109.688 13.985,183.429 "/>
<polygon fill="#C92A1D" points="13.985,243.274 46.485,222.185 46.485,243.274 62.713,243.274 62.713,211.653 78.939,201.124 
	78.939,243.274 95.167,243.274 95.167,190.593 111.395,180.063 111.395,243.274 127.623,243.274 127.623,149.585 13.985,223.325 "/>
<polygon fill="#00913A" points="127.622,89.739 127.622,109.687 241.26,35.947 241.26,15.999 "/>
<polygon fill="#00913A" points="127.622,149.584 241.26,75.844 241.26,55.896 127.622,129.636 "/>
<polygon fill="#00913A" points="127.622,189.481 143.85,178.952 143.85,243.274 160.078,243.274 160.078,168.421 176.304,157.891 
	176.304,243.274 192.533,243.274 192.533,147.361 208.759,136.831 208.759,243.274 224.987,243.274 224.987,126.3 241.26,115.741 
	241.26,95.793 127.622,169.533 "/>
<path d="M0.735,259.497"/>
<path d="M254.292,300.823"/>
<g>
	<defs>
		<rect id="SVGID_1_" x="-168.299" y="-242.796" width="595.276" height="841.891"/>
	</defs>
	<clipPath id="SVGID_2_">
		<use xlink:href="#SVGID_1_"  overflow="visible"/>
	</clipPath>
</g>
</svg>
